<svg width="56" height="57" viewBox="0 0 56 57" fill="none" xmlns="http://www.w3.org/2000/svg">
<path fill-rule="evenodd" clip-rule="evenodd" d="M36.9718 8.79108H5.8016V0.791077H36.9718C47.4652 0.791077 55.9718 9.29766 55.9718 19.7911V56.8242H47.9718V39.2048H42.8369C41.1134 49.1943 32.4064 56.7935 21.9246 56.7935C10.2038 56.7935 0.702332 47.2919 0.702332 35.5712C0.702332 23.8505 10.2038 14.349 21.9246 14.349C32.1485 14.349 40.6839 21.5788 42.6971 31.2048H47.9718V19.7911C47.9718 13.7159 43.0469 8.79108 36.9718 8.79108ZM8.70233 35.5712C8.70233 28.2688 14.6221 22.349 21.9246 22.349C29.227 22.349 35.1468 28.2688 35.1468 35.5712C35.1468 42.8737 29.227 48.7935 21.9246 48.7935C14.6221 48.7935 8.70233 42.8737 8.70233 35.5712Z" fill="white"/>
</svg>
