<svg width="100" height="100" viewBox="0 0 100 100" fill="none" xmlns="http://www.w3.org/2000/svg">
<g id="Favicon">
<rect width="100" height="100" rx="20" fill="#1D1C1C"/>
<path id="Union" fill-rule="evenodd" clip-rule="evenodd" d="M58.9718 28.7911H27.8016V20.7911H58.9718C69.4652 20.7911 77.9718 29.2977 77.9718 39.7911V76.8242H69.9718V59.2048H64.8369C63.1134 69.1943 54.4064 76.7935 43.9246 76.7935C32.2038 76.7935 22.7023 67.2919 22.7023 55.5712C22.7023 43.8505 32.2038 34.349 43.9246 34.349C54.1485 34.349 62.6839 41.5788 64.6971 51.2048H69.9718V39.7911C69.9718 33.7159 65.0469 28.7911 58.9718 28.7911ZM30.7023 55.5712C30.7023 48.2688 36.6221 42.349 43.9246 42.349C51.227 42.349 57.1468 48.2688 57.1468 55.5712C57.1468 62.8737 51.227 68.7935 43.9246 68.7935C36.6221 68.7935 30.7023 62.8737 30.7023 55.5712Z" fill="white"/>
</g>
</svg>
